#define _20icon_power_width 16
#define _20icon_power_height 16
static unsigned char _20icon_power_bits[] = {
   0x00, 0x00, 0xc0, 0x3f, 0x40, 0x20, 0x20, 0x10, 0x20, 0x08, 0x10, 0x04,
   0x10, 0x1e, 0x08, 0x10, 0x78, 0x08, 0x40, 0x04, 0x20, 0x02, 0x20, 0x01,
   0x90, 0x00, 0x50, 0x00, 0x28, 0x00, 0x18, 0x00 };
