#define _20icon_setting_width 16
#define _20icon_setting_height 16
static unsigned char _20icon_setting_bits[] = {
   0x80, 0x01, 0x48, 0x12, 0x54, 0x2a, 0x22, 0x44, 0x04, 0x20, 0x88, 0x11,
   0x46, 0x62, 0x21, 0x84, 0x21, 0x84, 0x46, 0x62, 0x88, 0x11, 0x04, 0x20,
   0x22, 0x44, 0x54, 0x2a, 0x48, 0x12, 0x80, 0x01 };
