#define _20icon_info_width 16
#define _20icon_info_height 16
static unsigned char _20icon_info_bits[] = {
   0xc0, 0x03, 0x38, 0x1c, 0x04, 0x20, 0x82, 0x41, 0x82, 0x41, 0x01, 0x80,
   0x01, 0x80, 0x81, 0x81, 0x81, 0x81, 0x81, 0x81, 0x81, 0x81, 0x82, 0x41,
   0x82, 0x41, 0x04, 0x20, 0x38, 0x1c, 0xc0, 0x03 };
