#define _20icon_time_width 16
#define _20icon_time_height 16
static unsigned char _20icon_time_bits[] = {
   0x00, 0x00, 0xe0, 0x07, 0x80, 0x01, 0xc4, 0x23, 0x38, 0x1c, 0x08, 0x10,
   0x88, 0x10, 0x84, 0x20, 0x84, 0x20, 0x84, 0x23, 0x04, 0x20, 0x08, 0x10,
   0x08, 0x10, 0x30, 0x0c, 0xc0, 0x03, 0x00, 0x00 };
