#define _20icon_manual_width 16
#define _20icon_manual_height 16
static unsigned char _20icon_manual_bits[] = {
   0x1c, 0x38, 0x02, 0x40, 0x01, 0x80, 0x19, 0x98, 0x39, 0x9c, 0x38, 0x1c,
   0x78, 0x1e, 0xf8, 0x1f, 0xd8, 0x1b, 0x98, 0x19, 0x18, 0x18, 0x19, 0x98,
   0x19, 0x98, 0x01, 0x80, 0x02, 0x40, 0x1c, 0x38 };
