#define _20icon_weld_width 16
#define _20icon_weld_height 16
static unsigned char _20icon_weld_bits[] = {
   0xe0, 0x07, 0xc0, 0x03, 0x80, 0x01, 0xc4, 0x23, 0x48, 0x12, 0x90, 0x09,
   0x00, 0x00, 0xfe, 0x0f, 0xf0, 0x7f, 0x00, 0x00, 0x90, 0x09, 0x48, 0x12,
   0xc4, 0x23, 0x80, 0x01, 0xc0, 0x03, 0xe0, 0x07 };
