#define _20icon_power_width 16
#define _20icon_power_height 16
static unsigned char _20icon_power_bits[] = {
   0xff, 0xff, 0x3f, 0xc0, 0xbf, 0xdf, 0xdf, 0xef, 0xdf, 0xf7, 0xef, 0xfb,
   0xef, 0xe1, 0xf7, 0xef, 0x87, 0xf7, 0xbf, 0xfb, 0xdf, 0xfd, 0xdf, 0xfe,
   0x6f, 0xff, 0xaf, 0xff, 0xd7, 0xff, 0xe7, 0xff };
